<?xml version="1.0" standalone="no"?>
<!DOCTYPE svg PUBLIC "-//W3C//DTD SVG 20010904//EN"
 "http://www.w3.org/TR/2001/REC-SVG-20010904/DTD/svg10.dtd">
<svg version="1.0" xmlns="http://www.w3.org/2000/svg"
 width="512.000000pt" height="512.000000pt" viewBox="0 0 512.000000 512.000000"
 preserveAspectRatio="xMidYMid meet">
<metadata>
Created by potrace 1.11, written by Peter Selinger 2001-2013
</metadata>
<g transform="translate(0.000000,512.000000) scale(0.100000,-0.100000)"
fill="#000000" stroke="none">
<path d="M1253 5105 c-353 -98 -758 -493 -868 -845 -34 -108 -39 -146 -40
-250 0 -238 187 -424 424 -423 127 1 218 44 304 145 44 52 425 615 451 667 42
82 -60 161 -127 99 -14 -13 -115 -158 -225 -323 -110 -165 -215 -317 -233
-338 -63 -74 -155 -99 -247 -68 -207 70 -236 315 -71 601 149 259 471 526 691
572 53 11 61 10 109 -13 86 -39 384 -275 403 -317 3 -7 -14 -38 -38 -70 -147
-193 -287 -519 -342 -795 -2 -10 -5 -26 -8 -35 -3 -9 -7 -35 -10 -57 -4 -22
-8 -51 -11 -65 -10 -52 -15 -87 -21 -138 -3 -29 -7 -63 -10 -75 -6 -32 -17
-267 -18 -377 -1 -532 150 -843 485 -999 59 -27 155 -62 188 -67 7 -2 36 -8
65 -15 28 -7 60 -13 71 -14 11 -1 43 -5 70 -9 94 -13 150 -16 315 -16 157 0
198 2 315 16 198 23 403 92 519 176 289 207 392 551 352 1178 -4 58 -9 114
-11 125 -3 11 -7 45 -10 75 -39 393 -197 838 -389 1090 -25 33 -43 65 -40 72
8 19 163 153 262 228 150 113 198 126 310 86 274 -98 607 -430 697 -696 37
-107 50 -211 36 -273 -40 -178 -260 -262 -390 -151 -28 24 -121 154 -262 365
-120 180 -227 333 -238 339 -71 37 -148 -30 -117 -103 25 -60 434 -662 482
-710 175 -174 481 -139 626 70 54 80 77 163 73 273 -9 249 -140 500 -385 738
-226 219 -469 346 -650 338 -107 -5 -287 -120 -501 -321 -31 -28 -61 -55 -67
-59 -6 -4 -39 14 -74 39 -82 61 -203 119 -308 147 -70 18 -110 22 -230 22
-161 0 -254 -19 -379 -75 -63 -29 -196 -112 -207 -130 -9 -15 -21 -10 -55 22
-93 86 -120 109 -189 165 -209 170 -338 218 -477 179z m1539 -364 c329 -106
575 -447 702 -974 59 -242 86 -467 88 -732 4 -392 -54 -595 -212 -756 -119
-121 -260 -180 -520 -216 -64 -9 -492 -9 -570 -1 -537 61 -744 322 -743 933 0
785 242 1431 624 1668 189 117 418 146 631 78z"/>
<path d="M2110 3818 c-41 -28 -60 -61 -60 -106 0 -72 52 -123 126 -124 54 -1
105 35 120 83 34 114 -90 212 -186 147z"/>
<path d="M2884 3825 c-52 -27 -76 -86 -60 -151 10 -42 45 -74 95 -85 85 -19
158 50 148 139 -10 87 -104 137 -183 97z"/>
<path d="M2519 3239 c-217 -18 -350 -180 -279 -337 31 -68 106 -125 203 -156
18 -6 18 -7 0 -37 -26 -46 -85 -103 -130 -125 -23 -12 -59 -19 -94 -19 -52 0
-60 3 -103 43 -39 36 -50 42 -78 37 -18 -3 -43 -16 -55 -30 -47 -53 -2 -144
97 -193 48 -24 67 -27 145 -26 80 0 97 4 157 32 36 18 92 56 123 85 l56 54 47
-47 c26 -26 63 -56 83 -68 172 -104 400 -65 458 76 18 44 -1 90 -45 108 -41
17 -70 7 -113 -38 -28 -30 -36 -33 -88 -33 -35 1 -73 8 -95 19 -45 22 -106 79
-131 124 -18 31 -18 32 0 38 107 37 171 86 203 157 83 181 -107 358 -361 336z
m150 -190 c43 -19 65 -50 56 -78 -3 -9 -24 -28 -48 -41 -78 -45 -230 -29 -274
29 -17 22 -16 35 6 60 43 49 181 66 260 30z"/>
<path d="M723 2888 c-41 -20 -83 -167 -87 -309 -6 -201 68 -465 191 -681 24
-42 50 -81 57 -88 41 -33 117 -12 133 37 12 35 7 52 -41 136 -48 85 -99 205
-124 294 -37 128 -37 131 14 57 92 -137 263 -284 329 -284 39 0 85 42 85 77 0
38 -15 58 -82 106 -90 64 -170 152 -224 248 -56 100 -119 281 -123 357 -1 7
-12 24 -26 37 -26 27 -64 31 -102 13z"/>
<path d="M1426 2015 c-261 -113 -398 -338 -399 -655 -1 -231 24 -406 86 -592
l33 -97 -31 -7 c-51 -11 -133 -55 -171 -93 -105 -104 -119 -289 -30 -410 80
-108 199 -157 392 -160 127 -3 194 20 265 88 57 55 64 92 26 137 -34 39 -87
38 -130 -4 -45 -43 -79 -53 -171 -51 -176 4 -269 67 -269 181 -1 88 69 145
190 154 86 7 121 20 137 53 17 33 12 61 -17 114 -64 114 -118 320 -134 512
-24 279 9 427 121 552 59 65 121 106 202 133 36 12 71 31 79 43 31 44 10 111
-39 126 -45 13 -60 11 -140 -24z"/>
<path d="M3549 2039 c-29 -11 -49 -46 -49 -85 0 -28 41 -74 66 -74 9 0 49 -15
88 -34 182 -88 276 -269 270 -521 -2 -82 -5 -122 -19 -253 -12 -109 -82 -334
-126 -407 -27 -46 -30 -79 -9 -113 20 -33 29 -35 144 -47 100 -10 169 -61 180
-133 16 -112 -77 -189 -241 -199 -109 -7 -146 1 -194 44 -52 47 -100 50 -136
9 -32 -38 -30 -78 9 -122 69 -79 147 -106 296 -103 154 3 265 42 343 120 100
100 122 258 56 385 -34 64 -122 128 -210 155 l-42 12 30 91 c29 83 48 161 61
241 3 17 7 41 10 55 25 146 23 399 -5 508 -56 225 -222 405 -430 468 -53 16
-57 16 -92 3z"/>
<path d="M1919 1695 c-51 -28 -51 -28 33 -525 42 -256 76 -471 75 -479 -1 -8
-26 -20 -54 -27 -146 -37 -236 -127 -260 -260 -34 -185 92 -349 301 -392 63
-13 253 -14 303 -1 63 16 141 59 194 106 l49 45 52 -47 c96 -87 170 -112 328
-113 134 -1 192 9 275 48 139 66 211 190 194 335 -17 140 -103 235 -249 275
-25 7 -51 13 -58 13 -10 0 -12 14 -7 53 3 29 7 59 10 66 2 7 6 29 9 48 7 46
68 413 106 636 25 152 25 167 -2 199 -27 31 -75 36 -112 12 -28 -19 -30 -26
-76 -307 -17 -102 -32 -196 -35 -210 -2 -14 -20 -122 -40 -240 -20 -118 -38
-222 -39 -230 -2 -8 -14 -16 -28 -18 -54 -7 -87 -77 -60 -129 17 -31 56 -41
172 -46 179 -6 245 -53 237 -169 -4 -66 -25 -96 -91 -130 -57 -29 -80 -33
-201 -33 -97 0 -116 3 -159 25 -56 29 -91 67 -119 130 -20 44 -21 64 -22 680
0 478 -4 640 -13 657 -19 33 -74 48 -111 29 -16 -9 -33 -22 -38 -28 -4 -7 -8
-301 -8 -654 l-1 -641 -28 -56 c-30 -62 -77 -104 -145 -131 -54 -21 -201 -20
-279 2 -70 20 -129 73 -140 127 -26 123 69 195 256 195 130 0 170 25 164 105
-1 25 -46 65 -72 65 -19 0 -28 16 -35 66 -2 16 -29 180 -60 364 -31 184 -58
349 -61 365 -20 141 -33 191 -59 212 -30 26 -59 28 -96 8z"/>
</g>
</svg>
